<?xml version="1.0" encoding="UTF-8"?>
<svg id="Layer_2" data-name="Layer 2" xmlns="http://www.w3.org/2000/svg" viewBox="0 0 957.2 137.7">
  <defs>
    <style>
      .cls-1 {
        stroke-width: 0px;
      }
    </style>
  </defs>
  <g id="Layer_1-2" data-name="Layer 1">
    <g>
      <path class="cls-1" d="M0,.1h90.9v18H20.1v40.2h64.8v18H20.1v43.3h70.8v18H0V.1Z"/>
      <path class="cls-1" d="M203.5,137.6l34.9-52.2c4.8-7.2,7-12.3,7-17.5s-2.4-10.5-7-17.5L205,0h24.5l28.6,43.1c5.2,8.6,8,17,8,25.7,0,8-2.6,16.6-8.3,25.3l-29,43.5h-25.3ZM311.4,137.6l-29.2-43.5c-5.3-8.6-8-17.3-8-25.3,0-8.6,2.6-17,8-25.7L310.6,0h24.7l-33.7,50.5c-4.6,7-6.8,12.1-6.8,17.5s2.2,10.3,6.8,17.5l35.2,52.2h-25.4v-.1Z"/>
      <path class="cls-1" d="M500.1.1h15.6l53.4,137.5h-21.9l-11-30.6h-56.3l-11,30.6h-22.3L500.1.1ZM529.6,89l-21.6-59.9-21.7,59.9h43.3Z"/>
      <path class="cls-1" d="M685.4.1h20.1v119.5h60.5v18h-80.6V.1Z"/>
      <path class="cls-1" d="M892.1,18.1h-45V.1h110.1v18h-44.8v119.5h-20.3V18.1Z"/>
    </g>
  </g>
</svg>