<?xml version="1.0" encoding="UTF-8"?>
<svg id="Layer_2" data-name="Layer 2" xmlns="http://www.w3.org/2000/svg" viewBox="0 0 954.92 242.33">
  <defs>
    <style>
      .cls-1 {
        stroke-width: 0px;
      }

      .cls-2 {
        isolation: isolate;
      }
    </style>
  </defs>
  <g id="Layer_1-2" data-name="Layer 1">
    <g class="cls-2">
      <path class="cls-1" d="M0,241.57v-49.91h2.29v49.91H0ZM.76,241.57v-2.18h16.27c4.37,0,8.3-1.09,11.8-3.06,3.5-1.97,6.12-4.59,7.97-8.08,1.97-3.5,2.84-7.43,2.84-11.8s-.87-8.3-2.84-11.69c-1.97-3.5-4.59-6.12-7.97-8.08-3.5-1.97-7.43-2.84-11.8-2.84H1.09v-2.18h16.06c3.71,0,7.1.55,10.16,1.86s5.68,3.06,7.97,5.24c2.29,2.18,4.04,4.81,5.24,7.86,1.31,3.06,1.86,6.33,1.86,10.05s-.55,6.99-1.86,9.94-3.06,5.68-5.24,7.97c-2.18,2.18-4.81,3.93-7.97,5.24-3.06,1.31-6.33,1.86-10.05,1.86l-16.49-.11h0Z"/>
      <path class="cls-1" d="M86.5,241.57l20.32-49.91h2.18l20.21,49.91h-2.51l-19.33-47.84h1.2l-19.44,47.84h-2.62ZM95.02,225.08v-2.08h25.78v2.18h-25.78v-.11Z"/>
      <path class="cls-1" d="M172.35,193.73v-2.18h40.41v2.18h-40.41ZM191.25,241.57v-48.6h2.29v48.6h-2.29Z"/>
      <path class="cls-1" d="M255.58,241.57l20.32-49.91h2.18l20.21,49.91h-2.51l-19.33-47.84h1.2l-19.44,47.84h-2.62ZM264.1,225.08v-2.08h25.78v2.18h-25.78v-.11Z"/>
      <path class="cls-1" d="M389.92,241.57l20.32-49.91h2.18l20.21,49.91h-2.62l-19.33-47.84h1.2l-19.44,47.84h-2.51ZM398.44,225.08v-2.08h25.89v2.18h-25.89v-.11Z"/>
      <path class="cls-1" d="M479.37,241.57v-49.91h1.75l.55,3.17v46.86h-2.29v-.11ZM513.88,241.57l-33.31-46.75.44-3.28,33.31,46.86-.44,3.17ZM513.88,241.57l-.55-3.17v-46.86h2.29v49.91h-1.75v.11Z"/>
      <path class="cls-1" d="M562.27,241.57l20.31-49.91h2.18l20.21,49.91h-2.51l-19.33-47.84h1.2l-19.44,47.84h-2.62ZM570.79,225.08v-2.08h25.78v2.18h-25.78v-.11Z"/>
      <path class="cls-1" d="M651.72,241.57v-49.91h2.29v49.91h-2.29ZM653.03,241.57v-2.18h29.05v2.18h-29.05Z"/>
      <path class="cls-1" d="M736.91,220.38l-20.21-28.72h2.84l17.8,25.34h-.66l18.02-25.34h2.62l-20.31,28.72h-.11ZM735.82,241.57v-23.7h2.29v23.7h-2.29Z"/>
      <path class="cls-1" d="M811.95,242.33c-3.82,0-7.21-.66-10.05-2.29-2.84-1.53-5.35-3.6-7.32-6.12l1.75-1.64c2.08,2.73,4.37,4.81,7.1,6.01s5.57,1.86,8.74,1.86c3.71,0,6.55-.87,8.96-2.62,2.29-1.75,3.5-4.26,3.5-7.43,0-2.29-.44-4.26-1.42-5.79-.87-1.53-2.18-2.73-3.82-3.71-1.64-.87-3.39-1.75-5.24-2.4s-3.71-1.42-5.68-2.18c-1.86-.66-3.6-1.64-5.24-2.62-1.64-1.09-2.84-2.4-3.82-4.04-.87-1.64-1.42-3.82-1.42-6.33s.55-4.48,1.75-6.33,2.73-3.28,4.81-4.15c2.08-1.09,4.48-1.53,7.32-1.53,3.28,0,6.01.55,8.52,1.86s4.59,3.06,6.44,5.35l-1.75,1.64c-1.75-2.08-3.6-3.71-5.79-4.81s-4.59-1.75-7.65-1.75c-3.39,0-6.12.76-8.19,2.51s-3.28,4.15-3.28,7.21c0,2.18.44,4.04,1.42,5.46.87,1.42,2.18,2.51,3.82,3.5,1.64.87,3.39,1.75,5.24,2.29,1.86.66,3.71,1.42,5.68,2.08,1.86.66,3.6,1.64,5.24,2.73s2.84,2.4,3.82,4.15c.87,1.75,1.42,3.82,1.42,6.44,0,4.15-1.42,7.43-4.04,9.5-2.51,2.08-6.12,3.17-10.81,3.17Z"/>
      <path class="cls-1" d="M874.75,241.57v-49.91h2.29v49.91h-2.29Z"/>
      <path class="cls-1" d="M940.06,242.33c-3.82,0-7.21-.66-10.05-2.29-2.84-1.53-5.35-3.6-7.32-6.12l1.75-1.64c2.08,2.73,4.37,4.81,7.1,6.01s5.57,1.86,8.74,1.86c3.71,0,6.55-.87,8.96-2.62,2.29-1.75,3.5-4.26,3.5-7.43,0-2.29-.44-4.26-1.42-5.79-.87-1.53-2.18-2.73-3.82-3.71-1.64-.87-3.39-1.75-5.24-2.4s-3.71-1.42-5.68-2.18c-1.86-.66-3.6-1.64-5.24-2.62-1.64-1.09-2.84-2.4-3.82-4.04-.87-1.64-1.42-3.82-1.42-6.33s.55-4.48,1.75-6.33,2.73-3.28,4.81-4.15c2.08-1.09,4.48-1.53,7.32-1.53,3.28,0,6.01.55,8.52,1.86s4.59,3.06,6.44,5.35l-1.75,1.64c-1.75-2.08-3.6-3.71-5.79-4.81-2.18-1.2-4.59-1.75-7.65-1.75-3.39,0-6.12.76-8.19,2.51s-3.28,4.15-3.28,7.21c0,2.18.44,4.04,1.42,5.46.87,1.42,2.18,2.51,3.82,3.5,1.64.87,3.39,1.75,5.24,2.29,1.86.66,3.71,1.42,5.68,2.08,1.86.66,3.6,1.64,5.24,2.73s2.84,2.4,3.82,4.15c.87,1.75,1.42,3.82,1.42,6.44,0,4.15-1.42,7.43-4.04,9.5-2.51,2.08-6.23,3.17-10.81,3.17Z"/>
    </g>
    <path class="cls-1" d="M574.5,138.69c-10.71,0-20.62.15-30.51-.16-1.42-.04-3.49-2.05-4.02-3.57-2.52-7.16-4.77-14.43-6.77-21.75-.9-3.27-2.38-4.74-5.91-4.7-13.37.14-26.74.15-40.11,0-3.55-.04-5,1.39-5.9,4.67-1.91,6.95-4.51,13.73-6.3,20.71-1.01,3.94-2.96,5.05-6.84,4.92-8.15-.26-16.31-.08-25.49-.08,2.64-8.1,4.95-15.27,7.32-22.42,12.21-36.97,24.5-73.91,36.56-110.94,1.29-3.96,3.08-5.33,7.22-5.22,10.5.28,21.01.22,31.51.02,3.42-.06,5.18,1.05,6.24,4.33,13.99,43.18,28.08,86.33,42.11,129.5.4,1.22.49,2.54.89,4.71ZM490.14,84.47h34.16c-5.53-18.12-10.92-35.76-16.31-53.4-.45.01-.9.02-1.35.03-5.4,17.48-10.81,34.96-16.5,53.37Z"/>
    <path class="cls-1" d="M33.11,56.41c12.34,0,23.95,0,35.57,0q11.67,0,11.67,11.34,0,12.83-12.96,12.83c-9.57,0-19.14.17-28.7-.08-4.13-.11-5.83.97-5.67,5.4.31,8.9.09,17.82.09,27.59,2.77,0,4.99,0,7.21,0,16.26,0,32.53.2,48.79-.12,5.19-.1,6.74,1.61,6.35,6.53-.38,4.73-.2,9.52-.05,14.28.1,3.22-.73,4.86-4.44,4.84-28.7-.11-57.4-.1-86.1-.01-3.31,0-4.25-1.32-4.24-4.41.06-43.23.07-86.46,0-129.69C.62,1.5,1.74.2,5.26.21c27.55.09,55.1.09,82.65,0,3.21,0,4.51,1.18,4.46,4.32-.08,5.14-.2,10.29.07,15.42.23,4.33-1.12,5.97-5.8,5.88-15.68-.29-31.38.06-47.06-.21-4.84-.08-6.89.97-6.58,6.26.45,7.77.12,15.59.12,24.52Z"/>
    <path class="cls-1" d="M884.62,25.61h-36.48V.55c1.73-.13,3.55-.39,5.36-.4,31.74-.02,63.48.07,95.22-.11,4.69-.03,6.47,1.19,6.17,6.03-.39,6.21-.09,12.47-.09,19.33h-36.49c-.17,2.98-.42,5.36-.43,7.74-.03,32.93-.15,65.85.11,98.77.04,5.62-1.7,7.28-7.15,6.9-6.47-.44-13.01-.41-19.49,0-5.16.32-6.88-1.21-6.84-6.59.24-32.16.12-64.33.12-96.49,0-3.03,0-6.06,0-10.12Z"/>
    <path class="cls-1" d="M716.97,113.41h55.19v25.13c-1.73.14-3.38.38-5.04.38-25.82.02-51.64-.07-77.46.1-4.41.03-5.91-1.11-5.89-5.73.17-42.45.17-84.91,0-127.36-.02-4.72,1.7-5.85,6.02-5.68,6.87.27,13.79.41,20.65-.04,5.3-.35,6.33,1.77,6.3,6.56-.18,33.12-.1,66.25-.08,99.38,0,2.23.19,4.47.31,7.25Z"/>
    <g>
      <path class="cls-1" d="M254.97,102.86c.75-3.45,1.92-6.54,2.18-10.09.19-2.69.31-5.31.84-7.97.71-3.56,1.53-6.54,1.25-10.2-.24-3.05-.65-6.08-.95-9.13-.65-6.54-.31-13.07-.81-19.6-.36-4.75-3.14-9.03-3.65-13.63-1.11-2.52.05-3.57-.29-6.42-.14-1.24-1.88-3.82-1.36-4.57-1.22-2.3-2.37-4.63-3.42-6.99-4.91-11.14-11.97-15.7-24.1-13.88-6.4.96-13.06.17-20.79.17,1.71,3.09,2.64,4.9,3.69,6.64,11.32,18.69,22.55,37.44,34.08,56,2.25,3.62,2.1,6.23-.1,9.71-12.59,19.92-24.97,39.97-37.4,59.99-1.04,1.68-1.91,3.45-3.29,5.97,11.01,0,20.91.16,30.79-.16,1.57-.05,3.57-1.96,4.51-3.52,6.19-10.25,12.13-20.64,18.17-30.98.2-.35.41-.7.61-1.05.02-.11.03-.21.05-.32Z"/>
      <path class="cls-1" d="M251.75,20.46s21.69,34.93,21.69,47.28-39.8,70.14-39.8,70.14"/>
    </g>
    <g>
      <path class="cls-1" d="M299.67,102.86c-.75-3.45-1.92-6.54-2.18-10.09-.19-2.69-.31-5.31-.84-7.97-.71-3.56-1.53-6.54-1.25-10.2.24-3.05.65-6.08.95-9.13.65-6.54.31-13.07.81-19.6.36-4.75,3.14-9.03,3.65-13.63,1.11-2.52-.05-3.57.29-6.42.14-1.24,1.88-3.82,1.36-4.57,1.22-2.3,2.37-4.63,3.42-6.99,4.91-11.14,11.97-15.7,24.1-13.88,6.4.96,13.06.17,20.79.17-1.71,3.09-2.64,4.9-3.69,6.64-11.32,18.69-22.55,37.44-34.08,56-2.25,3.62-2.1,6.23.1,9.71,12.59,19.92,24.97,39.97,37.4,59.99,1.04,1.68,1.91,3.45,3.29,5.97-11.01,0-20.91.16-30.79-.16-1.57-.05-3.57-1.96-4.51-3.52-6.19-10.25-12.13-20.64-18.17-30.98-.2-.35-.41-.7-.61-1.05-.02-.11-.03-.21-.05-.32Z"/>
      <path class="cls-1" d="M302.89,20.46s-21.69,34.93-21.69,47.28,39.8,70.14,39.8,70.14"/>
    </g>
  </g>
</svg>