<?xml version="1.0" encoding="UTF-8"?>
<svg id="Layer_2" data-name="Layer 2" xmlns="http://www.w3.org/2000/svg" viewBox="0 0 957.2 241">
  <defs>
    <style>
      .cls-1 {
        stroke-width: 0px;
      }

      .cls-2 {
        isolation: isolate;
      }
    </style>
  </defs>
  <g id="Layer_1-2" data-name="Layer 1">
    <g class="cls-2">
      <path class="cls-1" d="M26.6,240.3v-45.7h2.1v45.7h-2.1ZM27.3,240.3v-2h14.9c4,0,7.6-1,10.8-2.8,3.2-1.8,5.6-4.2,7.3-7.4,1.8-3.2,2.6-6.8,2.6-10.8s-.8-7.6-2.6-10.7c-1.8-3.2-4.2-5.6-7.3-7.4-3.2-1.8-6.8-2.6-10.8-2.6h-14.6v-2h14.7c3.4,0,6.5.5,9.3,1.7s5.2,2.8,7.3,4.8c2.1,2,3.7,4.4,4.8,7.2,1.2,2.8,1.7,5.8,1.7,9.2s-.5,6.4-1.7,9.1-2.8,5.2-4.8,7.3c-2,2-4.4,3.6-7.3,4.8-2.8,1.2-5.8,1.7-9.2,1.7l-15.1-.1h0Z"/>
      <path class="cls-1" d="M105.8,240.3l18.6-45.7h2l18.5,45.7h-2.3l-17.7-43.8h1.1l-17.8,43.8h-2.4ZM113.6,225.2v-1.9h23.6v2h-23.6v-.1Z"/>
      <path class="cls-1" d="M184.4,196.5v-2h37v2h-37ZM201.7,240.3v-44.5h2.1v44.5h-2.1Z"/>
      <path class="cls-1" d="M260.6,240.3l18.6-45.7h2l18.5,45.7h-2.3l-17.7-43.8h1.1l-17.8,43.8h-2.4ZM268.4,225.2v-1.9h23.6v2h-23.6v-.1Z"/>
      <path class="cls-1" d="M383.6,240.3l18.6-45.7h2l18.5,45.7h-2.4l-17.7-43.8h1.1l-17.8,43.8h-2.3ZM391.4,225.2v-1.9h23.7v2h-23.7v-.1Z"/>
      <path class="cls-1" d="M465.5,240.3v-45.7h1.6l.5,2.9v42.9h-2.1v-.1ZM497.1,240.3l-30.5-42.8.4-3,30.5,42.9-.4,2.9ZM497.1,240.3l-.5-2.9v-42.9h2.1v45.7h-1.6v.1Z"/>
      <path class="cls-1" d="M541.4,240.3l18.6-45.7h2l18.5,45.7h-2.3l-17.7-43.8h1.1l-17.8,43.8h-2.4ZM549.2,225.2v-1.9h23.6v2h-23.6v-.1Z"/>
      <path class="cls-1" d="M623.3,240.3v-45.7h2.1v45.7h-2.1ZM624.5,240.3v-2h26.6v2h-26.6Z"/>
      <path class="cls-1" d="M701.3,220.9l-18.5-26.3h2.6l16.3,23.2h-.6l16.5-23.2h2.4l-18.6,26.3h-.1ZM700.3,240.3v-21.7h2.1v21.7h-2.1Z"/>
      <path class="cls-1" d="M770,241c-3.5,0-6.6-.6-9.2-2.1-2.6-1.4-4.9-3.3-6.7-5.6l1.6-1.5c1.9,2.5,4,4.4,6.5,5.5s5.1,1.7,8,1.7c3.4,0,6-.8,8.2-2.4,2.1-1.6,3.2-3.9,3.2-6.8,0-2.1-.4-3.9-1.3-5.3-.8-1.4-2-2.5-3.5-3.4-1.5-.8-3.1-1.6-4.8-2.2s-3.4-1.3-5.2-2c-1.7-.6-3.3-1.5-4.8-2.4-1.5-1-2.6-2.2-3.5-3.7-.8-1.5-1.3-3.5-1.3-5.8s.5-4.1,1.6-5.8,2.5-3,4.4-3.8c1.9-1,4.1-1.4,6.7-1.4,3,0,5.5.5,7.8,1.7s4.2,2.8,5.9,4.9l-1.6,1.5c-1.6-1.9-3.3-3.4-5.3-4.4s-4.2-1.6-7-1.6c-3.1,0-5.6.7-7.5,2.3s-3,3.8-3,6.6c0,2,.4,3.7,1.3,5,.8,1.3,2,2.3,3.5,3.2,1.5.8,3.1,1.6,4.8,2.1,1.7.6,3.4,1.3,5.2,1.9,1.7.6,3.3,1.5,4.8,2.5s2.6,2.2,3.5,3.8c.8,1.6,1.3,3.5,1.3,5.9,0,3.8-1.3,6.8-3.7,8.7-2.3,1.9-5.6,2.9-9.9,2.9Z"/>
      <path class="cls-1" d="M827.5,240.3v-45.7h2.1v45.7h-2.1Z"/>
      <path class="cls-1" d="M887.3,241c-3.5,0-6.6-.6-9.2-2.1-2.6-1.4-4.9-3.3-6.7-5.6l1.6-1.5c1.9,2.5,4,4.4,6.5,5.5s5.1,1.7,8,1.7c3.4,0,6-.8,8.2-2.4,2.1-1.6,3.2-3.9,3.2-6.8,0-2.1-.4-3.9-1.3-5.3-.8-1.4-2-2.5-3.5-3.4-1.5-.8-3.1-1.6-4.8-2.2s-3.4-1.3-5.2-2c-1.7-.6-3.3-1.5-4.8-2.4-1.5-1-2.6-2.2-3.5-3.7-.8-1.5-1.3-3.5-1.3-5.8s.5-4.1,1.6-5.8,2.5-3,4.4-3.8c1.9-1,4.1-1.4,6.7-1.4,3,0,5.5.5,7.8,1.7s4.2,2.8,5.9,4.9l-1.6,1.5c-1.6-1.9-3.3-3.4-5.3-4.4-2-1.1-4.2-1.6-7-1.6-3.1,0-5.6.7-7.5,2.3s-3,3.8-3,6.6c0,2,.4,3.7,1.3,5,.8,1.3,2,2.3,3.5,3.2,1.5.8,3.1,1.6,4.8,2.1,1.7.6,3.4,1.3,5.2,1.9,1.7.6,3.3,1.5,4.8,2.5s2.6,2.2,3.5,3.8c.8,1.6,1.3,3.5,1.3,5.9,0,3.8-1.3,6.8-3.7,8.7-2.3,1.9-5.7,2.9-9.9,2.9Z"/>
    </g>
    <g>
      <path class="cls-1" d="M0,.1h90.9v18H20.1v40.2h64.8v18H20.1v43.3h70.8v18H0V.1Z"/>
      <path class="cls-1" d="M203.5,137.6l34.9-52.2c4.8-7.2,7-12.3,7-17.5s-2.4-10.5-7-17.5L205,0h24.5l28.6,43.1c5.2,8.6,8,17,8,25.7,0,8-2.6,16.6-8.3,25.3l-29,43.5h-25.3ZM311.4,137.6l-29.2-43.5c-5.3-8.6-8-17.3-8-25.3,0-8.6,2.6-17,8-25.7L310.6,0h24.7l-33.7,50.5c-4.6,7-6.8,12.1-6.8,17.5s2.2,10.3,6.8,17.5l35.2,52.2h-25.4v-.1Z"/>
      <path class="cls-1" d="M500.1.1h15.6l53.4,137.5h-21.9l-11-30.6h-56.3l-11,30.6h-22.3L500.1.1ZM529.6,89l-21.6-59.9-21.7,59.9h43.3Z"/>
      <path class="cls-1" d="M685.4.1h20.1v119.5h60.5v18h-80.6V.1Z"/>
      <path class="cls-1" d="M892.1,18.1h-45V.1h110.1v18h-44.8v119.5h-20.3V18.1Z"/>
    </g>
  </g>
</svg>